<svg width="32" height="32" viewBox="0 0 32 32" fill="none" xmlns="http://www.w3.org/2000/svg">
<path d="M23.8529 13.4588C28.9787 10.4169 27.4407 5.69245 26.0841 3.60448C23.7936 9.1344 17.1611 7.605 14.7167 8.45956C12.9809 8.92257 10.5318 10.2992 9.06092 11.5307C8.74237 11.7974 7.92425 12.3837 7.96447 12.7491C8.08462 13.4115 8.7928 13.3425 9.36468 12.9832C11.072 11.9105 15.4151 9.88783 18.9697 10.6526C22.7243 11.9659 18.8406 13.0887 17.5019 14.4874C16.453 16.0982 17.4057 17.2619 17.9152 16.7787C19.8388 14.5295 20.6918 15.4305 23.8529 13.4588Z" fill="#FF2E6B"/>
<path d="M8.14737 18.542C3.02155 21.5833 4.56006 26.3076 5.91686 28.3955C8.20707 22.8661 14.84 24.396 17.2844 23.5417C19.0202 23.0788 21.4694 21.7025 22.9402 20.4712C23.2587 20.2046 24.0769 19.6184 24.0366 19.253C23.9164 18.5906 23.2082 18.6595 22.6363 19.0188C20.929 20.0913 16.5858 22.1134 13.031 21.3484C9.27611 20.0349 13.16 18.9125 14.4985 17.514C15.5474 15.9034 14.5945 14.7397 14.085 15.2228C12.1615 17.4717 11.3085 16.5707 8.14737 18.542Z" fill="#F4AE0B"/>
</svg>
